<?xml version="1.0" encoding="utf-8"?>
<!-- Generator: Adobe Illustrator 17.0.0, SVG Export Plug-In . SVG Version: 6.00 Build 0)  -->
<!DOCTYPE svg PUBLIC "-//W3C//DTD SVG 1.1//EN" "http://www.w3.org/Graphics/SVG/1.1/DTD/svg11.dtd">
<svg version="1.1" id="Layer_1" xmlns="http://www.w3.org/2000/svg" xmlns:xlink="http://www.w3.org/1999/xlink" x="0px" y="0px"
	 width="20px" height="20px" viewBox="0 0 20 20" enable-background="new 0 0 20 20" xml:space="preserve">
	 <style>
	 	* {
	 		fill: #ffffff;
	 	}
	 </style>
<path d="M16.9,11c0,0.1-0.1,0.3-0.2,0.3L15,11.6c-0.1,0.3-0.2,0.6-0.3,0.8c0.3,0.4,0.6,0.8,1,1.2c0.1,0.1,0.1,0.1,0.1,0.2
	c0,0.1,0,0.1-0.1,0.2c-0.2,0.3-1.4,1.6-1.7,1.6c-0.1,0-0.2,0-0.2-0.1l-1.2-1c-0.3,0.1-0.5,0.2-0.8,0.3c-0.1,0.5-0.1,1.1-0.3,1.7
	c0,0.1-0.2,0.2-0.3,0.2H9c-0.2,0-0.3-0.1-0.3-0.3l-0.2-1.6c-0.3-0.1-0.5-0.2-0.8-0.3l-1.3,1c-0.1,0.1-0.1,0.1-0.2,0.1
	c-0.1,0-0.2,0-0.2-0.1c-0.5-0.4-1.1-1-1.5-1.5c0-0.1-0.1-0.1-0.1-0.2c0-0.1,0-0.1,0.1-0.2c0.3-0.4,0.6-0.8,0.9-1.2
	c-0.2-0.3-0.3-0.6-0.4-0.9l-1.6-0.2c-0.2,0-0.3-0.2-0.3-0.3V9c0-0.1,0.1-0.3,0.2-0.3L5,8.4c0.1-0.3,0.2-0.6,0.3-0.8
	c-0.3-0.4-0.6-0.8-1-1.2C4.4,6.3,4.3,6.2,4.3,6.2c0-0.1,0-0.1,0.1-0.2c0.2-0.3,1.4-1.6,1.7-1.6c0.1,0,0.2,0,0.2,0.1l1.2,1
	c0.3-0.1,0.5-0.2,0.8-0.3c0.1-0.5,0.1-1.1,0.3-1.7c0-0.1,0.2-0.2,0.3-0.2h2c0.2,0,0.3,0.1,0.3,0.3l0.2,1.6c0.3,0.1,0.5,0.2,0.8,0.3
	l1.3-1c0.1-0.1,0.1-0.1,0.2-0.1c0.1,0,0.2,0,0.2,0.1c0.5,0.4,1.1,1,1.5,1.5c0,0.1,0.1,0.1,0.1,0.2c0,0.1,0,0.1-0.1,0.2
	c-0.3,0.4-0.6,0.8-0.9,1.2c0.2,0.3,0.3,0.6,0.4,0.9l1.6,0.2c0.2,0,0.3,0.2,0.3,0.3V11z M10,7.7c-1.3,0-2.3,1-2.3,2.3s1,2.3,2.3,2.3
	s2.3-1,2.3-2.3S11.3,7.7,10,7.7z"/>
</svg>
