<?xml version="1.0" encoding="utf-8"?>
<!-- Generator: Adobe Illustrator 17.0.0, SVG Export Plug-In . SVG Version: 6.00 Build 0)  -->
<!DOCTYPE svg PUBLIC "-//W3C//DTD SVG 1.1//EN" "http://www.w3.org/Graphics/SVG/1.1/DTD/svg11.dtd">
<svg version="1.1" id="Layer_1" xmlns="http://www.w3.org/2000/svg" xmlns:xlink="http://www.w3.org/1999/xlink" x="0px" y="0px"
	 width="20px" height="20px" viewBox="0 0 20 20" enable-background="new 0 0 20 20" xml:space="preserve">
	 <style>
	 	* {
	 		fill: #ffffff;
	 	}
	 </style>
<path d="M8.9,16.3c0,0.3-0.3,0.6-0.6,0.6H3.7c-0.3,0-0.6-0.3-0.6-0.6V3.7c0-0.3,0.3-0.6,0.6-0.6h4.6c0.3,0,0.6,0.3,0.6,0.6V16.3z
	 M16.9,16.3c0,0.3-0.3,0.6-0.6,0.6h-4.6c-0.3,0-0.6-0.3-0.6-0.6V3.7c0-0.3,0.3-0.6,0.6-0.6h4.6c0.3,0,0.6,0.3,0.6,0.6V16.3z"/>
</svg>
