<?xml version="1.0" encoding="utf-8"?>
<!-- Generator: Adobe Illustrator 18.0.0, SVG Export Plug-In . SVG Version: 6.00 Build 0)  -->
<!DOCTYPE svg PUBLIC "-//W3C//DTD SVG 1.1//EN" "http://www.w3.org/Graphics/SVG/1.1/DTD/svg11.dtd">
<svg version="1.1" id="Ebene_1" xmlns="http://www.w3.org/2000/svg" xmlns:xlink="http://www.w3.org/1999/xlink" x="0px" y="0px"
	 width="20px" height="20px" viewBox="0 0 20 20" enable-background="new 0 0 20 20" xml:space="preserve">
<path fill-rule="evenodd" clip-rule="evenodd" fill="#757575" d="M10,1c1.1,0,2,0.9,2,2s-0.9,2-2,2S8,4.1,8,3S8.9,1,10,1z"/>
<path fill-rule="evenodd" clip-rule="evenodd" fill="#757575" d="M10,15c1.1,0,2,0.9,2,2s-0.9,2-2,2s-2-0.9-2-2S8.9,15,10,15z"/>
<path fill-rule="evenodd" clip-rule="evenodd" fill="#757575" d="M10,8c1.1,0,2,0.9,2,2s-0.9,2-2,2s-2-0.9-2-2S8.9,8,10,8z"/>
</svg>
